<?xml version="1.0"?>
<svg xmlns="http://www.w3.org/2000/svg" xmlns:xlink="http://www.w3.org/1999/xlink" version="1.1" id="Capa_1" x="0px" y="0px" width="512px" height="512px" viewBox="0 0 471.612 471.612" style="enable-background: new 0 0 471.612 471.612" xml:space="preserve"><g transform="matrix(1,0,0,1,10.1,-5.5)"><g>
	<path d="M 55.8 412.6 c 92 92 241.7 92 333.6 0 c 92 -92 92 -241.7 0 -333.6 s -241.7 -92 -333.6 0 S -36.2 320.6 55.8 412.6 z M 74.1 97.2 c 81.9 -81.9 215.2 -81.9 297.1 0 c 81.9 81.9 81.9 215.2 0 297.1 c -81.9 81.9 -215.2 81.9 -297.1 0 C -7.8 312.4 -7.8 179.1 74.1 97.2 z" data-original="#000000" class="active-path" data-old_color="#000000" fill="#ffffff"/>
</g></g>
    <ellipse transform="matrix(1,0,0,1,9.8,-5.2)" cx="221.5" cy="243.1" fill="rgb(255, 255, 255)" rx="219.5" ry="214.3"/> </svg>
