<svg height="512" viewBox="0 0 64 64" width="512" xmlns="http://www.w3.org/2000/svg"><g id="Rubber"><path d="m59.87 21.1-16.97-16.97a5.006 5.006 0 0 0 -7.07 0l-3.667 3.67a2.994 2.994 0 0 0 -3.406.577l-18.385 18.38a3 3 0 0 0 -.572 3.406l-6.5 6.494a5 5 0 0 0 0 7.071l16.972 16.972a5 5 0 0 0 7.071 0l6.494-6.5a2.967 2.967 0 0 0 3.406-.577l18.385-18.38a3 3 0 0 0 .576-3.406l3.666-3.666a5 5 0 0 0 0-7.071zm-33.941 38.184a3 3 0 0 1 -4.243 0l-16.97-16.97a3 3 0 0 1 0-4.243l6.364-6.364 21.213 21.213zm28.284-25.455-14.8 14.8-18.436-18.338-1.41 1.418 18.433 18.335-2.168 2.169a1 1 0 0 1 -1.415 0l-22.63-22.627a1 1 0 0 1 0-1.415l14.851-14.847 18.432 18.338 1.41-1.418-18.43-18.336 2.121-2.121a1 1 0 0 1 1.415 0l22.627 22.627a1 1 0 0 1 0 1.415zm4.243-7.072-3.536 3.536-21.213-21.214 3.536-3.535a3 3 0 0 1 4.242 0l16.971 16.971a3 3 0 0 1 0 4.242z"/><path d="m46.849 32.121h2v2h-2z" transform="matrix(.707 -.707 .707 .707 -9.407 43.526)"/><path d="m17.151 27.879h2v2h-2z" transform="matrix(.707 -.707 .707 .707 -15.103 21.287)"/></g></svg>